<?xml version="1.0" standalone="no"?><!DOCTYPE svg PUBLIC "-//W3C//DTD SVG 1.1//EN" "http://www.w3.org/Graphics/SVG/1.1/DTD/svg11.dtd"><svg width="32" height="32" viewBox="0 0 32 32" version="1.1" xmlns="http://www.w3.org/2000/svg" xmlns:xlink="http://www.w3.org/1999/xlink"><defs><style type="text/css"><![CDATA[
@font-face { font-family: ifont; src: url("//at.alicdn.com/t/font_1442373896_4754455.eot?#iefix") format("embedded-opentype"), url("//at.alicdn.com/t/font_1442373896_4754455.woff") format("woff"), url("//at.alicdn.com/t/font_1442373896_4754455.ttf") format("truetype"), url("//at.alicdn.com/t/font_1442373896_4754455.svg#ifont") format("svg"); }

]]></style></defs><g class="transform-group"><g transform="scale(0.03125, 0.03125)"><path d="M514.844444 182.044444c-176.355556 0-321.422222 125.155556-321.422222 281.6 0 79.644444 36.977778 150.755556 93.866667 201.955556 0 91.022222-48.355556 110.933333-48.355556 153.6 85.333333 22.755556 147.911111-31.288889 204.8-76.8 22.755556 2.844444 45.511111 5.688889 68.266667 5.688889 176.355556 0 321.422222-125.155556 321.422222-281.6C833.422222 310.044444 691.2 182.044444 514.844444 182.044444zM512 568.888889 512 568.888889l-130.844444 0c-17.066667 0-28.444444-14.222222-28.444444-28.444444 0-17.066667 14.222222-28.444444 28.444444-28.444444l130.844444 0c17.066667 0 28.444444 14.222222 28.444444 28.444444C540.444444 557.511111 526.222222 568.888889 512 568.888889zM642.844444 426.666667 642.844444 426.666667l-261.688889 0c-17.066667 0-28.444444-17.066667-28.444444-31.288889 0-17.066667 11.377778-28.444444 28.444444-28.444444l261.688889 2.844444c17.066667 0 28.444444 14.222222 28.444444 28.444444C671.288889 412.444444 659.911111 426.666667 642.844444 426.666667z" fill="#eeeeee"></path></g></g></svg>