<?xml version="1.0" standalone="no"?><!DOCTYPE svg PUBLIC "-//W3C//DTD SVG 1.1//EN" "http://www.w3.org/Graphics/SVG/1.1/DTD/svg11.dtd"><svg width="200" height="200" viewBox="0 0 200 200" version="1.1" xmlns="http://www.w3.org/2000/svg" xmlns:xlink="http://www.w3.org/1999/xlink"><defs><style type="text/css"><![CDATA[
@font-face { font-family: ifont; src: url("//at.alicdn.com/t/font_1442373896_4754455.eot?#iefix") format("embedded-opentype"), url("//at.alicdn.com/t/font_1442373896_4754455.woff") format("woff"), url("//at.alicdn.com/t/font_1442373896_4754455.ttf") format("truetype"), url("//at.alicdn.com/t/font_1442373896_4754455.svg#ifont") format("svg"); }

]]></style></defs><g class="transform-group"><g transform="scale(0.1953125, 0.1953125)"><path d="M885.651915 419.736735c12.619226 0 24.744629 2.488572 36.365264 7.473014 11.626716 4.984442 21.589519 11.626716 29.89449 19.926822 8.300106 8.304971 14.94238 18.267774 19.926822 29.89449 4.984442 11.626716 7.474231 23.747254 7.474231 36.36648 0 13.288197-2.489788 25.574153-7.474231 36.868817s-11.626716 21.090831-19.926822 29.390937c-8.304971 8.304971-18.26899 14.947245-29.89449 19.931687-11.621851 4.979577-23.746038 7.474231-36.365264 7.474231L605.663223 607.063213l0 279.988692c0 13.284548-2.494654 25.570504-7.474231 36.865168-4.984442 11.293447-11.626716 21.090831-19.931687 29.395802-8.300106 8.300106-18.264125 14.94238-29.889625 19.926822s-23.746038 7.474231-36.370129 7.474231c-13.284548 0-25.570504-2.489788-36.863951-7.474231-11.294663-4.984442-21.090831-11.626716-29.395802-19.926822-8.301322-8.304971-14.943596-18.102355-19.926822-29.395802-4.984442-11.293447-7.474231-23.58062-7.474231-36.865168L418.336746 607.061996 138.348053 607.061996c-13.284548 0-25.571721-2.494654-36.865168-7.474231-11.293447-4.984442-21.090831-11.626716-29.395802-19.931687-8.300106-8.300106-14.947245-18.09749-19.925605-29.390937C47.177036 538.972911 44.687247 526.685738 44.687247 513.397541c0-12.619226 2.489788-24.739764 7.474231-36.36648 4.978361-11.626716 11.6255-21.589519 19.925605-29.89449 8.304971-8.300106 18.102355-14.94238 29.395802-19.926822 11.293447-4.984442 23.58062-7.473014 36.865168-7.473014l279.988692 0L418.336746 139.746827c0-12.619226 2.489788-24.743413 7.474231-36.365264 4.983226-11.626716 11.6255-21.589519 19.926822-29.89449 8.304971-8.300106 18.101139-14.947245 29.395802-19.926822 11.293447-4.984442 23.579403-7.474231 36.863951-7.474231 25.908639 0 47.996845 9.132062 66.26097 27.401052 18.26899 18.267774 27.404701 40.35598 27.404701 66.259754L605.663223 419.736735 885.651915 419.736735 885.651915 419.736735zM885.651915 419.736735" fill="#272636"></path></g></g></svg>