<?xml version="1.0" standalone="no"?><!DOCTYPE svg PUBLIC "-//W3C//DTD SVG 1.1//EN" "http://www.w3.org/Graphics/SVG/1.1/DTD/svg11.dtd"><svg width="200" height="200" viewBox="0 0 200 200" version="1.1" xmlns="http://www.w3.org/2000/svg" xmlns:xlink="http://www.w3.org/1999/xlink"><defs><style type="text/css"><![CDATA[
@font-face { font-family: ifont; src: url("//at.alicdn.com/t/font_1442373896_4754455.eot?#iefix") format("embedded-opentype"), url("//at.alicdn.com/t/font_1442373896_4754455.woff") format("woff"), url("//at.alicdn.com/t/font_1442373896_4754455.ttf") format("truetype"), url("//at.alicdn.com/t/font_1442373896_4754455.svg#ifont") format("svg"); }

]]></style></defs><g class="transform-group"><g transform="scale(0.1953125, 0.1953125)"><path d="M509.092 500.924c258.849 0 454.035-83.602 454.035-194.469 0-110.855-195.186-194.455-454.036-194.455-258.848 0-454.048 83.602-454.048 194.457 0 110.868 195.201 194.468 454.049 194.468zM509.092 161.072c238.65 0 404.963 76.617 404.963 145.383 0 68.768-166.313 145.396-404.963 145.396-238.663 0-404.977-76.628-404.977-145.396 0.001-68.766 166.315-145.383 404.977-145.383zM509.083 706.919c258.143 0 452.807-83.079 452.807-193.229 0-29.087-14.057-56.157-38.8-80.437-0.159-0.164-0.285-0.343-0.448-0.502-0.185-0.18-0.306-0.371-0.489-0.548l-0.123 0.135c-3.98-3.648-9.183-6.003-15.007-6.003-12.359 0-22.375 10.015-22.375 22.373 0 6.542 2.915 12.292 7.389 16.385l-0.089 0.097c14.934 15.014 23.351 33.354 23.351 48.5 0 69.361-166.817 146.64-406.215 146.64-239.387 0-406.205-77.278-406.205-146.64 0-17.279 4.858-32.067 23.9-48.895 0.229-0.218 0.46-0.409 0.681-0.637 0.147-0.126 0.257-0.25 0.406-0.379l-0.091-0.087c3.658-3.982 6.020-9.195 6.020-15.029 0-12.358-10.017-22.373-22.375-22.373-6.178 0-11.77 2.505-15.815 6.551l-0.132-0.129c-25.061 24.409-39.18 51.687-39.18 80.977-0.001 110.15 194.661 193.229 452.791 193.229zM922.87 637.83c-0.18-0.177-0.302-0.368-0.485-0.543l-0.122 0.134c-3.98-3.648-9.183-6.005-15.009-6.005-12.355 0-22.373 10.016-22.373 22.374 0 6.541 2.914 12.293 7.389 16.384l-0.090 0.098c14.935 15.015 23.351 33.355 23.351 48.499 0 69.364-166.815 146.64-406.214 146.64-239.385 0-406.204-77.277-406.204-146.64 0-17.279 4.858-32.067 23.898-48.895 0.229-0.217 0.461-0.409 0.681-0.637 0.147-0.127 0.258-0.25 0.406-0.38l-0.091-0.086c3.658-3.983 6.020-9.196 6.020-15.029 0-12.359-10.017-22.374-22.373-22.374-6.179 0-11.771 2.505-15.817 6.551l-0.131-0.127c-25.063 24.407-39.179 51.689-39.179 80.977 0 110.151 194.661 193.229 452.791 193.229 258.143 0 452.805-83.079 452.805-193.229 0-29.084-14.053-56.156-38.794-80.432-0.164-0.17-0.292-0.348-0.458-0.509z" fill="#777777"></path></g></g></svg>