<?xml version="1.0" standalone="no"?><!DOCTYPE svg PUBLIC "-//W3C//DTD SVG 1.1//EN" "http://www.w3.org/Graphics/SVG/1.1/DTD/svg11.dtd"><svg t="1481946761035" class="icon" style="" viewBox="0 0 1024 1024" version="1.1" xmlns="http://www.w3.org/2000/svg" p-id="1852" xmlns:xlink="http://www.w3.org/1999/xlink" width="128" height="128"><defs><style type="text/css"></style></defs><path d="M209.785445 917.057339 64.147484 367.385345l156.391886-62.729693 17.873066 45.956681-116.02962 46.517453L242.592642 850.790076l170.102143-68.2535 328.373843 68.902276 159.480224-64.766073L780.341073 333.055468l-160.912853 65.35038-18.068518-45.889143 211.724099-85.97L958.718693 816.239166l-213.175147 86.571704-328.485383-68.902276L209.785445 917.057339 209.785445 917.057339zM425.954787 706.965413c-7.379061 0-14.358009-3.287883-19.076474-8.966209-2.034333-2.439562-50.586119-61.10059-99.943246-134.321218-29.207206-43.342134-52.577472-82.681094-69.418023-117.011994-22.432918-45.734624-33.323966-82.184791-33.323966-111.438045 0-59.646472 23.055089-115.714442 64.945151-157.893076 41.910529-42.158169 97.597829-65.392336 156.816558-65.392336 59.220776 0 114.9091 23.234167 156.797116 65.392336 41.889039 42.178635 64.944128 98.246605 64.944128 157.893076 0 29.253254-10.910491 65.703421-33.31885 111.438045-16.866133 34.3309-40.190351 73.690326-69.419046 117.011994-49.383734 73.198116-97.91403 131.860167-99.949386 134.321218C440.29233 703.677531 433.313382 706.965413 425.954787 706.965413L425.954787 706.965413 425.954787 706.965413zM425.954787 161.968905c-94.867648 0-172.046425 77.716013-172.046425 173.237553 0 39.111786 33.365922 110.164029 93.930299 200.024639 29.586852 43.902906 59.446927 83.128279 78.116125 106.880239 18.653849-23.772426 48.53132-62.977333 78.120218-106.880239 60.560284-89.8821 93.931323-160.912853 93.931323-200.024639C598.007351 239.684918 520.827551 161.968905 425.954787 161.968905L425.954787 161.968905 425.954787 161.968905zM425.954787 403.682016c-46.583968 0-84.489276-38.150902-84.489276-85.073584 0-46.896076 37.905308-85.048001 84.489276-85.048001 46.584991 0 84.495416 38.173414 84.495416 85.048001C510.450203 365.531114 472.540801 403.682016 425.954787 403.682016L425.954787 403.682016 425.954787 403.682016zM425.954787 283.587823c-19.186991 0-34.798551 15.722076-34.798551 35.020608 0 19.323091 15.611559 35.025725 34.798551 35.025725 19.191084 0 34.778084-15.7231 34.778084-35.025725C460.733894 299.3099 445.146894 283.587823 425.954787 283.587823L425.954787 283.587823 425.954787 283.587823zM425.954787 283.587823" p-id="1853" fill="#777777"></path></svg>