<?xml version="1.0" standalone="no"?><!DOCTYPE svg PUBLIC "-//W3C//DTD SVG 1.1//EN" "http://www.w3.org/Graphics/SVG/1.1/DTD/svg11.dtd"><svg t="1481946857543" class="icon" style="" viewBox="0 0 1024 1024" version="1.1" xmlns="http://www.w3.org/2000/svg" p-id="2904" xmlns:xlink="http://www.w3.org/1999/xlink" width="200" height="200"><defs><style type="text/css"></style></defs><path d="M671.36 102.144l0 444.032 233.6-234.88C855.424 216.064 772.352 141.184 671.36 102.144zM921.6 336.64l-313.216 313.152 332.672 1.344C972.8 548.544 966.336 436.352 921.6 336.64zM727.296 916.608c94.912-49.664 169.408-133.504 207.808-235.776l-444.672-3.072L727.296 916.608zM387.264 950.912c102.912 32.96 215.296 27.072 314.752-17.664L386.304 613.312 387.264 950.912zM119.936 731.968c50.368 96.96 134.784 173.056 237.44 212.672l0-451.392L119.936 731.968zM83.2 386.624C50.944 490.88 57.6 604.864 103.04 706.24l318.336-318.336L83.2 386.624zM300.48 116.736c-96.576 50.496-172.224 135.68-211.2 239.616l452.032 3.072L300.48 116.736zM646.208 81.792c-104.64-33.472-218.816-27.456-320 17.92l321.024 325.312L646.208 81.792z" p-id="2905" fill="#707070"></path></svg>