<?xml version="1.0" standalone="no"?><!DOCTYPE svg PUBLIC "-//W3C//DTD SVG 1.1//EN" "http://www.w3.org/Graphics/SVG/1.1/DTD/svg11.dtd"><svg width="200" height="200" viewBox="0 0 200 200" version="1.1" xmlns="http://www.w3.org/2000/svg" xmlns:xlink="http://www.w3.org/1999/xlink"><defs><style type="text/css"><![CDATA[
@font-face { font-family: ifont; src: url("//at.alicdn.com/t/font_1442373896_4754455.eot?#iefix") format("embedded-opentype"), url("//at.alicdn.com/t/font_1442373896_4754455.woff") format("woff"), url("//at.alicdn.com/t/font_1442373896_4754455.ttf") format("truetype"), url("//at.alicdn.com/t/font_1442373896_4754455.svg#ifont") format("svg"); }

]]></style></defs><g class="transform-group"><g transform="scale(0.1953125, 0.1953125)"><path d="M909.937778 664.803556c-18.432-110.876444-95.829333-183.523556-95.829333-183.523556 11.064889-100.664889-29.496889-118.528-29.496889-118.528C776.106667 51.313778 517.432889 56.775111 512 56.917333c-5.432889-0.142222-264.135111-5.603556-272.611556 305.863111 0 0-40.561778 17.863111-29.496889 118.528 0 0-77.397333 72.647111-95.829333 183.523556 0 0-9.841778 187.335111 88.462222 22.954667 0 0 22.129778 62.435556 62.663111 118.528 0 0-72.504889 25.486222-66.332444 91.761778 0 0-2.474667 73.898667 154.823111 68.835556 0 0 110.563556-8.903111 143.758222-57.344l29.240889 0c33.166222 48.440889 143.758222 57.344 143.758222 57.344 157.240889 5.091556 154.794667-68.835556 154.794667-68.835556 6.115556-66.247111-66.332444-91.761778-66.332444-91.761778 40.533333-56.092444 62.663111-118.528 62.663111-118.528C919.751111 852.167111 909.937778 664.803556 909.937778 664.803556L909.937778 664.803556zM909.937778 664.803556" fill="#272636"></path></g></g></svg>