<?xml version="1.0" standalone="no"?><!DOCTYPE svg PUBLIC "-//W3C//DTD SVG 1.1//EN" "http://www.w3.org/Graphics/SVG/1.1/DTD/svg11.dtd"><svg t="1481946820134" class="icon" style="" viewBox="0 0 1024 1024" version="1.1" xmlns="http://www.w3.org/2000/svg" p-id="2091" xmlns:xlink="http://www.w3.org/1999/xlink" width="200" height="200"><defs><style type="text/css"></style></defs><path d="M674.715919 416.519392 364.088252 416.519392l204.514907 35.060517L348.95253 630.642121l333.314365 0-196.962907-42.643216 189.409884-171.47542L674.715919 416.519392zM512.589424 64.46829c-246.997464 0-447.231881 200.242604-447.231881 447.231881S265.627776 958.933075 512.589424 958.933075c247.029186 0 447.231881-200.242604 447.231881-447.231881S759.616564 64.46829 512.589424 64.46829zM828.547493 427.692872 705.442734 532.035312l40.905642 262.746146c-8.218172 8.218172-8.423857 8.218172-16.604166 8.218172L515.944845 671.641907 301.763788 802.99963c-16.433274 0-18.139126 0-18.139126-8.218172l29.491685-262.746146-129.959887-114.853841-44.392046-31.54546-12.531408 0 0-1.39272 12.531408 1.39272 254.878968 0 32.797987-58.488089 82.057901-173.48417c8.181333 0 8.181333 0 16.433274 0l90.23821 173.48417 32.797987 58.488089 221.563188 0c8.181333 0 8.181333-4.7727 8.181333 3.478218l-49.160653 38.57455L828.547493 427.692872z" p-id="2092" fill="#707070"></path></svg>