<?xml version="1.0" standalone="no"?><!DOCTYPE svg PUBLIC "-//W3C//DTD SVG 1.1//EN" "http://www.w3.org/Graphics/SVG/1.1/DTD/svg11.dtd"><svg t="1480921034940" class="icon" style="" viewBox="0 0 1048 1024" version="1.1" xmlns="http://www.w3.org/2000/svg" p-id="1787" xmlns:xlink="http://www.w3.org/1999/xlink" width="131" height="128"><defs><style type="text/css"></style></defs><path d="M524.2752 0C241.516134 0 12.288102 229.228032 12.288102 511.976038c0 117.534003 39.610982 225.814016 106.203955 312.231014l38.47895-40.06103C100.53417 708.109005 67.143168 613.944013 67.143168 511.976038c0-252.460954 204.668006-457.120973 457.132032-457.120973 252.45399 0 457.120973 204.660019 457.120973 457.120973 0 252.468019-204.668006 457.12896-457.120973 457.12896-91.12105 0-176.011981-26.66496-247.303987-72.611021l-34.630042 42.907955c80.855962 53.441024 177.760973 84.558029 281.934029 84.558029 282.755994 0 511.984026-229.224038 511.984026-511.984026C1036.258202 229.228032 807.03017 0 524.2752 0zM304.851149 566.841958 304.851149 621.697024 505.983181 621.697024 505.983181 767.966003 505.983181 767.97399 505.983181 767.97399 505.983181 804.54697 560.838144 804.54697 560.838144 767.97399 560.83712 767.97399 560.838144 767.966003 560.838144 621.697024 761.973146 621.697024 761.973146 566.841958 560.838144 566.841958 560.838144 457.136026 761.973146 457.136026 761.973146 402.270003 600.358195 402.270003 718.125158 284.499968 678.615142 244.985958 533.40713 390.177997 388.213146 244.985958 348.695142 284.499968 466.462106 402.270003 304.851149 402.270003 304.851149 457.136026 505.983181 457.136026 505.983181 566.841958Z" p-id="1788" fill="#777777"></path></svg>