<?xml version="1.0" standalone="no"?><!DOCTYPE svg PUBLIC "-//W3C//DTD SVG 1.1//EN" "http://www.w3.org/Graphics/SVG/1.1/DTD/svg11.dtd"><svg width="128" height="128" viewBox="0 0 128 128" version="1.1" xmlns="http://www.w3.org/2000/svg" xmlns:xlink="http://www.w3.org/1999/xlink"><defs><style type="text/css"><![CDATA[
@font-face { font-family: ifont; src: url("//at.alicdn.com/t/font_1442373896_4754455.eot?#iefix") format("embedded-opentype"), url("//at.alicdn.com/t/font_1442373896_4754455.woff") format("woff"), url("//at.alicdn.com/t/font_1442373896_4754455.ttf") format("truetype"), url("//at.alicdn.com/t/font_1442373896_4754455.svg#ifont") format("svg"); }

]]></style></defs><g class="transform-group"><g transform="scale(0.125, 0.125)"><path d="M517.607 88.89c18.264 3.251 28.177 18.27 40.264 29.637 122.365 115.052 244.377 230.479 366.484 345.804 9.03 8.53 18.403 16.738 26.961 25.72 13.31 13.968 12.476 31.584-1.475 45.458-11.225 11.164-28.476 10.194-41.881-2.464-124.471-117.511-248.753-235.216-373.527-352.4-23.554-22.119-16.313-22.214-40.332-0.126C392.411 274.04 291.296 368.186 190.07 462.213c-3.877 3.604-6.722 8.313-10.048 12.508 5.288 1.037 10.543 2.746 15.862 2.971 10.997 0.46 22.028 0.006 33.04 0.146 20.908 0.271 37.425 10.059 37.252 37.194-0.725 112.976-0.143 225.962-0.045 338.941 0.012 15.169 0.854 16.021 16.505 16.021 154.563 0.004 309.128 0.008 463.696-0.001 15.828 0 16.62-0.851 16.619-17.021-0.009-97.715 0.043-195.428-0.086-293.144-0.021-12.891 1.424-24.299 13.916-32.063 19.597-12.174 44.82 1.657 45.46 21.611 0.239 7.453 0.945 14.899 0.949 22.349 0.065 93.413 0.073 186.827 0.015 280.241-0.01 15.971-0.038 31.953-0.737 47.9-0.972 22.087-10.418 31.054-32.955 31.124-59.329 0.188-118.663 0.067-177.995 0.071-122.577 0.005-245.158-0.053-367.735 0.109-14.146 0.021-27.773-1.131-34.062-15.88-2.925-6.867-3.379-15.18-3.393-22.841-0.197-111.927-0.129-223.854-0.126-335.782 0-17.29-0.375-17.616-18.074-17.602-29.492 0.021-58.993-0.473-88.471 0.195-15.128 0.344-26.568-4.602-32.889-18.325-5.548-12.06-0.807-26.849 11.242-38.054 31.987-29.736 64.104-59.335 96.127-89.037 74.992-69.554 149.973-139.12 224.93-208.712 30.939-28.726 61.627-57.73 92.889-86.101 5.204-4.722 12.773-6.835 19.253-10.153C513.341 88.89 515.474 88.89 517.607 88.89zM492.559 514.18c0 9.646-7.82 17.469-17.467 17.469l-81.515 0c-9.646 0-17.467-7.821-17.467-17.469l0-81.515c0-9.646 7.82-17.468 17.467-17.468l81.515 0c9.646 0 17.467 7.821 17.467 17.468L492.559 514.18zM662.5 514.18c0 9.646-7.821 17.469-17.467 17.469l-81.517 0c-9.646 0-17.468-7.821-17.468-17.469l0-81.515c0-9.646 7.821-17.468 17.468-17.468l81.517 0c9.646 0 17.467 7.821 17.467 17.468L662.5 514.18zM492.559 678.299c0 9.646-7.82 17.467-17.467 17.467l-81.515 0c-9.646 0-17.467-7.82-17.467-17.467l0-81.516c0-9.647 7.82-17.468 17.467-17.468l81.515 0c9.646 0 17.467 7.819 17.467 17.468L492.559 678.299zM662.5 678.299c0 9.646-7.821 17.467-17.467 17.467l-81.517 0c-9.646 0-17.468-7.82-17.468-17.467l0-81.516c0-9.647 7.821-17.468 17.468-17.468l81.517 0c9.646 0 17.467 7.819 17.467 17.468L662.5 678.299z" fill="#fff"></path></g></g></svg>