<?xml version="1.0" standalone="no"?><!DOCTYPE svg PUBLIC "-//W3C//DTD SVG 1.1//EN" "http://www.w3.org/Graphics/SVG/1.1/DTD/svg11.dtd"><svg t="1481946271991" class="icon" style="" viewBox="0 0 1024 1024" version="1.1" xmlns="http://www.w3.org/2000/svg" p-id="1436" xmlns:xlink="http://www.w3.org/1999/xlink" width="200" height="200"><defs><style type="text/css"></style></defs><path d="M512 0C229.248 0 0 229.248 0 512s229.248 512 512 512 512-229.248 512-512C1024 229.184 794.752 0 512 0zM618.304 627.968c15.808-11.968 35.52-19.136 56.896-19.136 52.224 0 94.592 42.304 94.592 94.656 0 52.224-42.304 94.656-94.592 94.656-52.16 0-94.528-42.368-94.528-94.656l0-0.064L339.456 586.816c-14.784 9.536-32.32 15.168-51.2 15.168-52.224 0-94.592-42.368-94.592-94.592 0-52.224 42.368-94.592 94.592-94.592 22.272 0 42.688 7.744 58.88 20.608L580.608 320.64 580.608 320.576c0-52.224 42.368-94.592 94.528-94.592 52.224 0 94.656 42.304 94.656 94.592 0 52.288-42.368 94.592-94.656 94.592-21.376 0-41.024-7.168-56.896-19.136L382.72 509.824 382.528 514.112 618.304 627.968z" p-id="1437"></path></svg>