<?xml version="1.0" standalone="no"?><!DOCTYPE svg PUBLIC "-//W3C//DTD SVG 1.1//EN" "http://www.w3.org/Graphics/SVG/1.1/DTD/svg11.dtd"><svg width="200" height="200" viewBox="0 0 200 200" version="1.1" xmlns="http://www.w3.org/2000/svg" xmlns:xlink="http://www.w3.org/1999/xlink"><defs><style type="text/css"><![CDATA[
@font-face { font-family: ifont; src: url("//at.alicdn.com/t/font_1442373896_4754455.eot?#iefix") format("embedded-opentype"), url("//at.alicdn.com/t/font_1442373896_4754455.woff") format("woff"), url("//at.alicdn.com/t/font_1442373896_4754455.ttf") format("truetype"), url("//at.alicdn.com/t/font_1442373896_4754455.svg#ifont") format("svg"); }

]]></style></defs><g class="transform-group"><g transform="scale(0.1953125, 0.1953125)"><path d="M692.736 349.472c11.712 0 23.328 0.864 34.816 2.144C696.288 205.952 540.576 97.728 362.816 97.728 164.096 97.728 1.312 233.184 1.312 405.184c0 99.296 54.144 180.8 144.672 244.032l-36.16 108.736 126.368-63.36c45.216 8.96 81.504 18.144 126.624 18.144 11.328 0 22.592-0.576 33.76-1.44-7.072-24.16-11.168-49.472-11.168-75.744C385.408 477.632 521.024 349.472 692.736 349.472zM498.368 251.456c27.232 0 45.248 17.92 45.248 45.12 0 27.104-18.016 45.248-45.248 45.248-27.104 0-54.272-18.144-54.272-45.248C444.096 269.344 471.296 251.456 498.368 251.456zM245.376 341.792c-27.104 0-54.432-18.144-54.432-45.248 0-27.2 27.328-45.12 54.432-45.12s45.12 17.92 45.12 45.12C290.496 323.648 272.48 341.792 245.376 341.792zM1022.688 631.232c0-144.544-144.64-262.336-307.072-262.336-172 0-307.456 117.824-307.456 262.336 0 144.768 135.456 262.336 307.456 262.336 36 0 72.32-9.088 108.48-18.144L923.264 929.728l-27.2-90.336C968.64 784.96 1022.688 712.768 1022.688 631.232zM615.936 585.984c-18.016 0-36.16-17.92-36.16-36.16 0-18.016 18.144-36.16 36.16-36.16 27.328 0 45.248 18.144 45.248 36.16C661.184 568.096 643.296 585.984 615.936 585.984zM814.784 585.984c-17.888 0-35.904-17.92-35.904-36.16 0-18.016 18.016-36.16 35.904-36.16 27.104 0 45.248 18.144 45.248 36.16C860.032 568.096 841.888 585.984 814.784 585.984z" fill="#272636"></path></g></g></svg>